/* XPM */
static char *_4c1aa013ac14466b0f741f8922e147c[] = {
/* columns rows colors chars-per-pixel */
"64 64 160 2 ",
"   c #1F3B50",
".  c #1F3B51",
"X  c #1F3C50",
"o  c #1F3C51",
"O  c #1F3D51",
"+  c #1F3C52",
"@  c #1F3D52",
"#  c #203B50",
"$  c #203B51",
"%  c #213B51",
"&  c #203B52",
"*  c #203C50",
"=  c #213C50",
"-  c #203D50",
";  c #203C51",
":  c #213C51",
">  c #203D51",
",  c #213D51",
"<  c #223C50",
"1  c #203C52",
"2  c #213C52",
"3  c #203D52",
"4  c #213D52",
"5  c #213E52",
"6  c #233E52",
"7  c #223F53",
"8  c #233F53",
"9  c #243D50",
"0  c #243D51",
"q  c #243E51",
"w  c #263F50",
"e  c #263E51",
"r  c #233F54",
"t  c #3E474F",
"y  c #244055",
"u  c #244155",
"i  c #264256",
"p  c #264257",
"a  c #2D4051",
"s  c #264258",
"d  c #274458",
"f  c #284459",
"g  c #29455A",
"h  c #29475A",
"j  c #2A475B",
"k  c #2C495C",
"l  c #2D495D",
"z  c #2D4A5E",
"x  c #2D4B5E",
"c  c #384550",
"v  c #304F60",
"b  c #325062",
"n  c #345264",
"m  c #355264",
"M  c #375467",
"N  c #375668",
"B  c #3C5C6D",
"V  c #3F5E6F",
"C  c #42494F",
"Z  c #44494E",
"A  c #45494E",
"S  c #4B4C4F",
"D  c #4F4E4E",
"F  c #514E4E",
"G  c #55504D",
"H  c #54504E",
"J  c #5A514D",
"K  c #67574C",
"L  c #715A4C",
"P  c #755A4C",
"I  c #415F70",
"U  c #416070",
"Y  c #426172",
"T  c #456575",
"R  c #486877",
"E  c #486878",
"W  c #496979",
"Q  c #4C6D7C",
"!  c #805F4B",
"~  c #815F4B",
"^  c #82604A",
"/  c #85614B",
"(  c #916548",
")  c #946749",
"_  c #986849",
"`  c #9A6949",
"'  c #9E6A49",
"]  c #AC6E47",
"[  c #B37147",
"{  c #B57346",
"}  c #BC7547",
"|  c #B67348",
" . c #C67846",
".. c #C77A46",
"X. c #CC7B46",
"o. c #CF7C45",
"O. c #DA8144",
"+. c #E48443",
"@. c #E98643",
"#. c #EE8743",
"$. c #E98544",
"%. c #E98644",
"&. c #F08843",
"*. c #517381",
"=. c #537382",
"-. c #527481",
";. c #537483",
":. c #547583",
">. c #587987",
",. c #5A7B89",
"<. c #5C7E8B",
"1. c #5C7E8C",
"2. c #5E808D",
"3. c #60818F",
"4. c #60828F",
"5. c #608390",
"6. c #638391",
"7. c #628590",
"8. c #638591",
"9. c #648692",
"0. c #668894",
"q. c #688B97",
"w. c #698D98",
"e. c #698E98",
"r. c #6B8E9A",
"t. c #6D919B",
"y. c #6D909C",
"u. c #71939F",
"i. c #7396A1",
"p. c #769AA5",
"a. c #789DA7",
"s. c #7CA0AA",
"d. c #7CA2AA",
"f. c #7DA2AC",
"g. c #7FA4AE",
"h. c #81A7AF",
"j. c #83A7B0",
"k. c #84AAB3",
"l. c #88AFB6",
"z. c #89AFB6",
"x. c #8AB0B8",
"c. c #8CB2B9",
"v. c #8EB4BC",
"b. c #8FB5BC",
"n. c #8FB6BE",
"m. c #91B9C0",
"M. c #99C0C6",
"N. c #9AC1C6",
"B. c #9FC7CB",
"V. c #9EC5CC",
"C. c #A3CAD0",
"Z. c #A4CCD1",
"A. c #A5CED3",
"S. c #A6CFD3",
"D. c #A7CED4",
"F. c #A8D1D5",
"G. c #A9D2D6",
"H. c #AAD3D7",
"J. c #ABD4D8",
"K. c None",
/* pixels */
"K.K.K.K.K.> $ + $ > K.K.K.K.K.K.K.K.K.K.K.K.K.K.K.K.K.K.K.K.K.K.K.K.K.K.K.K.K.K.K.K.K.K.K.K.K.K.> > $ > & K.K.K.K.K.K.K.K.K.K.K.",
"K.K.K.> $ > > $ > $ $ > K.K.K.K.K.K.K.K.K.K.K.K.K.K.K.K.K.K.K.K.K.K.K.K.K.K.K.K.K.K.K.K.K.K.> > > $ > $ > $ K.K.K.K.K.K.K.K.K.K.",
"K.K.> $ $ I u.b.y.B > > > K.K.K.K.K.K.K.K.K.K.K.K.K.K.K.K.K.K.K.K.K.K.K.K.K.K.K.K.K.K.K.K.> $ 9 =.h.z.3.j > $ > K.K.K.K.K.K.K.K.",
"K.> > u b.J.J.J.H.J.z.> $ > K.K.K.K.K.K.K.K.K.K.K.K.K.K.K.K.K.K.K.K.K.K.K.K.K.K.K.K.K.K.> $ N C.J.J.J.H.J.1.> $ K.K.K.K.K.K.K.K.",
"K.> $ b.J.J.J.J.J.J.J.k.> > K.K.K.K.K.K.K.K.K.K.K.K.K.K.K.K.K.K.K.K.K.K.K.K.K.K.K.K.K.$ $ u H.J.J.J.J.J.J.J.T > > K.K.K.K.K.K.K.",
"> $ I J.J.J.J.J.J.J.J.J.N $ $ K.K.K.K.K.K.K.K.K.K.K.K.K.K.K.K.K.K.K.K.K.K.K.K.K.K.K.K.> > j.J.J.J.J.J.J.J.J.D.> $ K.K.K.K.K.K.K.",
"$ > i.J.J.J.J.J.J.J.J.J.9.$ > $ > $ > $ > $ > $ > $ > $ > $ > $ > $ > $ > $ > $ > $ > $ $ H.J.J.J.J.J.J.J.J.J.z > K.K.K.K.K.K.K.",
"> $ v.H.J.J.J.J.J.J.J.J.j.> $ > $ > $ > $ > $ > $ > $ > $ > $ > $ > $ > $ > $ > $ > $ $ r J.J.J.J.J.J.J.J.J.J.I > $ K.K.K.K.K.K.",
"> $ y.J.J.J.J.J.J.J.J.J.6.> + $ > $ > > $ > > $ $ > $ > $ > $ > > > $ > > $ > > $ > $ > $ D.J.J.J.J.J.J.J.J.J.z $ K.K.K.K.K.K.K.",
"> > B J.J.J.J.J.J.J.J.J.n > $ K.K.K.K.K.K.K.K.K.K.K.K.K.K.K.K.K.K.K.K.K.K.K.K.K.K.K.K.$ > f.J.J.J.J.J.J.J.J.C.> > K.K.K.K.K.K.K.",
"K.> > x.J.J.J.J.J.J.J.f.> $ K.K.K.K.K.K.K.K.K.K.K.K.K.K.K.K.K.K.K.K.K.K.K.K.K.K.K.K.K.K.$ u D.J.J.J.J.J.J.J.I + & K.K.K.K.K.K.K.",
"K.$ > > k.J.J.J.J.J.f.> $ > K.K.K.K.K.K.K.K.K.K.K.K.K.K.K.K.K.K.K.K.K.K.K.K.K.K.K.K.K.K.> $ v B.J.J.J.J.H.=.> $ K.K.K.K.K.K.K.K.",
"K.K.> $ $ N 9.j.6.n > $ > K.K.K.K.K.K.K.K.K.K.K.K.K.K.K.K.K.K.K.K.K.K.K.K.K.K.K.K.K.K.> $ > > > E i.d.;.s > $ > K.K.K.K.K.K.K.K.",
"K.K.K.> > $ > $ + > $ > K.K.K.K.K.K.K.K.K.K.K.K.K.K.K.K.K.K.K.K.K.K.K.K.K.K.K.K.K.> $ > > K.$ > $ $ $ > $ > K.K.K.K.K.K.K.K.K.K.",
"K.K.K.K.K.> $ + + # K.K.K.K.K.K.K.K.K.K.K.K.K.K.K.K.K.K.K.K.K.K.K.K.K.K.K.K.K.K.> > $ > K.K.K.K.$ > > > K.K.K.K.K.K.K.K.K.K.K.K.",
"K.K.K.K.K.K.K.K.K.K.K.K.K.K.K.K.K.K.K.K.K.K.K.K.K.K.K.K.K.K.K.K.K.K.K.K.K.K.> > $ $ K.K.K.K.K.K.K.K.K.K.K.K.K.K.K.K.K.K.K.K.K.K.",
"K.K.K.K.K.K.K.K.K.K.K.K.K.K.K.K.K.K.K.K.K.K.K.K.K.K.K.K.K.K.K.K.K.K.K.K.K.$ $ > > K.K.K.K.K.K.K.K.K.K.K.K.K.K.K.K.K.K.K.K.K.K.K.",
"K.K.K.K.K.K.K.K.K.K.K.K.K.K.K.K.K.K.K.K.K.K.K.K.K.K.K.K.K.K.K.K.K.K.K.$ > > $ K.K.K.K.K.K.K.K.K.K.K.K.K.K.K.K.K.K.K.K.K.K.K.K.K.",
"K.K.K.K.K.K.K.K.K.K.K.K.K.K.K.K.K.K.K.K.K.K.K.K.K.K.K.K.K.K.K.K.K.K.> $ $ > K.K.K.K.K.K.K.K.K.K.K.K.K.K.K.K.K.K.K.K.K.K.K.K.K.K.",
"K.K.K.K.K.K.K.K.K.K.K.K.K.K.K.K.K.K.K.K.K.K.K.K.K.K.K.K.K.K.K.K.+ > $ > K.K.K.K.K.K.K.K.K.K.K.K.K.K.K.K.K.K.K.K.K.K.K.K.K.K.K.K.",
"K.K.K.K.K.K.K.K.K.K.K.K.K.K.K.K.K.K.K.K.$ > K.K.K.K.K.K.K.K.K.> $ > $ K.K.K.K.K.K.K.K.K.K.K.K.$ $ K.K.K.K.K.K.K.K.K.K.K.K.K.K.K.",
"K.K.K.K.K.K.> K.K.K.K.K.K.K.K.K.K.$ > 9 > $ $ > > K.K.K.K.$ > $ $ K.K.K.K.K.K.K.K.K.K.K.> $ > $ $ > > $ K.K.K.K.K.K.K.K.K.K.K.K.",
"K.K.K.K.K.> > K.K.K.K.K.K.K.K.K.$ > > w H L A 9 > $ K.K.> $ > > K.K.K.K.K.K.K.K.K.K.K.> + > s N N s > > > K.K.K.K.K.K.K.K.K.K.K.",
"K.K.K.K.K.K.K.K.K.K.K.K.K.K.K.$ > $ ` &.&.&.&.%.H $ > > $ > K.K.K.K.K.K.K.K.K.K.K.K.> $ y ,.0.0.0.0.,.r $ > K.K.K.K.K.K.K.K.K.K.",
"K.K.K.K.K.K.K.K.K.K.K.K.K.K.K.> $ } &.&.&.&.&.&.&.J $ $ $ K.K.K.K.K.K.K.K.K.K.K.K.$ > 9 0.0.0.0.0.0.0.9.> $ + K.K.K.K.K.K.K.K.K.",
"K.K.K.K.K.K.K.K.K.K.K.K.K.K.> $ J &.&.&.&.&.&.&.&.%.9 > K.K.K.K.K.K.K.K.K.K.K.K.K.$ $ -.0.0.0.0.0.0.0.0.;.> $ K.K.K.K.K.K.K.K.K.",
"K.K.K.K.K.> > K.K.K.K.K.K.K.$ $ [ &.&.&.&.&.&.&.&.&.F $ $ K.K.K.K.K.K.K.K.K.K.K.K.> > 0.0.0.0.0.0.0.0.0.0.> $ K.K.K.K.K.K.K.K.K.",
"K.K.K.K.K.K.$ K.K.K.K.K.K.K.> > +.&.&.&.&.&.&.&.&.&.~ > > K.K.K.K.K.K.K.K.K.K.K.K.$ f 0.0.0.0.0.0.0.0.0.0.f > K.K.K.K.K.K.K.K.K.",
"K.K.K.K.K.K.K.K.K.K.K.K.K.K.> $ X.&.&.&.&.&.&.&.&.&.K $ > K.K.K.K.K.K.K.K.K.K.K.K.> > 0.0.0.0.0.0.0.0.0.0.r > K.K.K.K.K.K.K.K.K.",
"K.K.K.K.K.K.K.K.K.K.K.K.K.K.$ > ( &.&.&.&.&.&.&.&.&.c > K.K.K.K.K.K.K.K.K.K.K.K.K.$ > 9.0.0.0.0.0.0.0.0.8.$ $ K.K.K.K.K.K.K.K.K.",
"K.K.K.K.K.= > K.K.K.K.K.K.K.> $ e %.&.&.&.&.&.&.&.{ > $ K.K.K.K.K.K.K.K.K.K.K.K.K.> > b 0.0.0.0.0.0.0.0.b > > K.K.K.K.K.K.K.K.K.",
"K.K.K.K.K.> > K.K.K.K.K.K.K.K.> > A %.&.&.&.&.&.o.9 $ > K.K.K.K.K.K.K.K.K.K.K.K.K.K.> > R 0.0.0.0.0.0.R $ > K.K.K.K.K.K.K.K.K.K.",
"K.K.K.K.K.K.K.K.K.K.K.K.K.K.K.K.> $ 9 ' O.&...P > $ > K.K.K.K.K.K.K.K.K.K.K.K.K.K.K.> $ > z =.8.8.Q z > $ > K.K.K.K.K.K.K.K.K.K.",
"K.K.K.K.K.K.K.K.K.K.K.K.K.K.K.K.$ > > > $ > $ > > > K.K.K.K.K.K.K.K.K.K.K.K.K.K.K.K.K.> $ + > $ + + > > > K.K.K.K.K.K.K.K.K.K.K.",
"K.K.K.K.K.K.K.K.K.K.K.K.K.K.K.> > $ K.> + $ > $ K.K.K.K.K.K.K.K.K.K.K.K.K.K.K.K.K.K.K.K.K.+ > > $ > > K.K.K.K.K.K.K.K.K.K.K.K.K.",
"K.K.K.K.K.K.K.K.K.K.K.K.K.K.K.$ > K.K.K.K.K.K.K.K.K.K.K.K.K.K.K.K.K.K.K.K.K.K.K.K.K.K.K.K.K.K.K.K.K.K.K.K.K.K.K.K.K.K.K.K.K.K.K.",
"K.K.K.K.K.K.K.K.K.K.K.K.K.K.$ > $ K.K.K.K.K.K.K.K.K.K.K.K.K.K.K.K.K.K.K.K.K.K.K.K.K.K.K.K.K.K.K.K.K.K.K.K.K.K.K.K.K.K.K.K.K.K.K.",
"K.K.K.K.K.K.K.K.K.K.K.K.K.K.> $ K.K.K.K.K.K.K.K.K.K.K.K.K.K.K.> > K.K.K.K.K.K.K.K.K.K.K.K.K.K.K.K.K.K.K.K.K.K.K.K.K.K.K.K.K.K.K.",
"K.K.K.K.K.K.K.K.K.K.K.K.K.K.$ > K.K.K.K.K.K.K.K.K.K.K.K.$ > > $ > $ $ > K.K.K.K.K.K.K.K.K.K.K.K.K.K.K.K.K.K.K.K.K.K.K.K.K.K.K.K.",
"K.K.K.K.K.K.K.K.K.K.K.K.K.$ > K.K.K.K.K.K.K.K.K.K.K.K.> > $ h I Y h > $ > K.K.K.K.K.K.K.K.> K.K.K.K.K.K.K.K.K.K.K.K.K.K.K.K.K.K.",
"K.K.K.K.K.K.K.K.K.K.K.K.K.> $ K.K.K.K.K.K.K.K.K.K.K.> > p v.J.J.J.J.v.u > > K.K.K.K.K.K.K.> $ K.K.K.K.K.K.K.K.K.K.K.K.K.K.K.K.K.",
"K.K.K.K.K.K.K.K.K.K.K.K.> $ > K.K.K.K.K.K.K.K.K.K.$ $ r A.J.J.J.J.J.J.A.9 $ r K.K.K.K.K.K.> $ K.K.K.K.K.K.K.K.K.K.K.K.K.K.K.K.K.",
"K.K.K.K.K.K.K.K.K.K.K.K.$ > K.K.K.K.K.K.K.K.K.K.K.> $ h.J.J.J.J.J.J.J.J.h.$ > K.K.K.K.K.K.K.K.K.K.K.K.K.K.K.K.K.K.K.K.K.K.K.K.K.",
"K.K.K.K.K.K.K.K.K.K.K.> > $ K.K.K.K.K.K.K.K.K.K.K.$ $ J.J.J.J.J.J.J.J.J.J.> $ K.K.K.K.K.K.K.K.K.K.K.K.K.K.K.K.K.K.K.K.K.K.K.K.K.",
"K.K.K.K.K.K.K.K.K.K.K.$ > K.K.K.K.K.K.K.K.K.K.K.K.> z J.J.J.J.J.J.J.J.J.J.z $ K.K.K.K.K.K.> $ K.K.K.K.K.K.K.K.K.K.K.K.K.K.K.K.K.",
"K.K.K.K.K.K.K.K.K.K.K.> $ K.K.K.K.K.K.K.K.K.K.K.K.$ u J.J.J.J.J.J.J.J.J.J.u > K.K.K.K.K.K.$ > K.K.K.K.K.K.K.K.K.K.K.K.K.K.K.K.K.",
"K.K.K.K.K.> > > > $ > $ K.K.K.K.K.K.K.K.K.K.K.K.K.> > A.J.J.J.J.J.J.J.J.D.$ > K.K.K.K.K.K.K.K.K.K.K.K.K.K.K.K.K.K.K.K.K.K.K.K.K.",
"K.K.K.$ > $ > $ $ > $ > K.K.K.K.K.K.K.K.K.K.K.K.K.> $ Q J.J.J.J.J.J.J.J.Q > $ K.K.K.K.K.K.K.K.K.K.K.K.K.K.K.K.K.K.K.K.K.K.K.K.K.",
"K.K.> $ > 1.v.C.x.>.> $ > K.K.K.K.K.K.K.K.K.K.K.K.K.> $ d.H.J.H.J.J.J.d.> $ K.K.K.K.K.K.K.$ > K.K.K.K.K.K.K.K.K.K.K.K.K.K.K.K.K.",
"K.> $ h V.J.H.J.J.J.N.s $ > K.K.K.K.K.K.K.K.K.K.K.K.$ > $ Y n.H.H.n.I $ $ > K.K.K.K.K.K.K.> $ K.K.K.K.K.K.K.> > > $ > K.K.K.K.K.",
"K.> $ N.J.J.J.J.J.J.J.m.> $ K.K.K.K.K.K.K.K.K.K.K.K.K.> > $ > $ $ $ $ > > K.K.K.K.K.K.K.K.K.K.K.K.K.K.K.= > $ > $ + $ > > K.K.K.",
"$ $ W J.J.J.J.J.J.J.J.J.I > $ K.K.K.K.K.K.K.K.K.K.K.K.K.K.> $ > $ > > K.K.K.K.K.K.K.K.K.K.K.K.K.K.K.K.> $ $ C ~ { / C $ $ > K.K.",
"> $ p.J.J.J.J.J.J.J.J.J.w.$ $ K.K.K.K.K.K.K.K.K.K.K.K.K.K.K.K.K.K.K.K.K.K.K.K.K.K.K.K.K.K.K.K.K.K.K.> > # ] &.&.&.&.&.[ 9 > $ K.",
"$ > v.J.J.J.J.J.J.J.J.J.h.$ $ > K.K.K.K.K.K.K.K.K.K.K.K.K.K.K.K.K.K.K.K.K.K.K.K.K.K.K.K.K.K.K.K.K.K.$ > ] &.&.&.&.&.&.&.} > > K.",
"> > q.J.J.J.J.J.J.J.J.J.1.$ > $ > $ > $ > $ > $ > $ > K.K.K.K.K.K.K.K.K.K.K.K.K.K.K.K.K.K.K.K.K.K.$ > t &.&.&.&.&.&.&.&.&.S $ > ",
"> $ n J.J.J.J.J.J.J.J.J.z > $ > $ > $ > $ > $ > $ > > $ > $ > $ > $ > $ $ > K.K.K.K.K.K.K.K.K.K.K.> $ ~ &.&.&.&.&.&.&.&.&.) $ > ",
"K.$ > a.J.J.J.J.J.J.J.w.> $ K.K.K.K.K.K.K.K.K.K.K.K.$ > $ > $ > $ > > $ > $ > $ > $ > $ > $ > + r $ > [ &.&.&.&.&.&.&.&.&. .> > ",
"K.> $ > w.J.J.J.J.J.6.> > $ K.K.K.K.K.K.K.K.K.K.K.K.K.K.K.K.K.K.K.K.K.K.K.> = > $ > $ > $ > $ > + > $ / &.&.&.&.&.&.&.&.&.` > $ ",
"K.K.> $ > h E 9.T h + $ > K.K.K.K.K.K.K.K.K.K.K.K.K.K.K.K.K.K.K.K.K.K.K.K.K.K.K.K.K.K.K.K.K.K.K.$ $ > Z &.&.&.&.&.&.&.&.&.F $ > ",
"K.K.K.$ $ $ > $ > $ $ + K.K.K.K.K.K.K.K.K.K.K.K.K.K.K.K.K.K.K.K.K.K.K.K.K.K.K.K.K.K.K.K.K.K.K.K.K.K.> > [ &.&.&.&.&.&.&. .$ > K.",
"K.K.K.K.K.K.> > $ K.K.K.K.K.K.K.K.K.K.K.K.K.K.K.K.K.K.K.K.K.K.K.K.K.K.K.K.K.K.K.K.K.K.K.K.K.K.K.K.K.> > 9 } &.&.&.&.&. .9 $ > K.",
"K.K.K.K.K.K.K.K.K.K.K.K.K.K.K.K.K.K.K.K.K.K.K.K.K.K.K.K.K.K.K.K.K.K.K.K.K.K.K.K.K.K.K.K.K.K.K.K.K.K.K.$ $ > S )  .` F $ > > K.K.",
"K.K.K.K.K.K.K.K.K.K.K.K.K.K.K.K.K.K.K.K.K.K.K.K.K.K.K.K.K.K.K.K.K.K.K.K.K.K.K.K.K.K.K.K.K.K.K.K.K.K.K.K.> $ > $ + $ $ $ > K.K.K.",
"K.K.K.K.K.K.K.K.K.K.K.K.K.K.K.K.K.K.K.K.K.K.K.K.K.K.K.K.K.K.K.K.K.K.K.K.K.K.K.K.K.K.K.K.K.K.K.K.K.K.K.K.K.K.> > $ > r K.K.K.K.K."
};
